<svg xmlns="http://www.w3.org/2000/svg" viewBox="0 0 900 220" width="900" height="220">
  <defs>
    <linearGradient id="bg" x1="0%" y1="0%" x2="100%" y2="100%">
      <stop offset="0%" stop-color="#14532d"/><stop offset="100%" stop-color="#052e16"/>
    </linearGradient>
    <linearGradient id="broc" x1="0%" y1="0%" x2="0%" y2="100%">
      <stop offset="0%" stop-color="#4ade80"/><stop offset="100%" stop-color="#22c55e"/>
    </linearGradient>
    <linearGradient id="acc" x1="0%" y1="0%" x2="0%" y2="100%">
      <stop offset="0%" stop-color="#4ade80"/><stop offset="100%" stop-color="#16a34a"/>
    </linearGradient>
  </defs>

  <rect width="900" height="220" rx="32" fill="url(#bg)"/>

  <!-- Broccoli+dumbbell icon scaled to fit height -->
  <g transform="translate(22, 8) scale(0.4)">
    <circle cx="256" cy="128" r="82" fill="url(#broc)"/>
    <circle cx="175" cy="168" r="68" fill="url(#broc)"/>
    <circle cx="337" cy="168" r="68" fill="url(#broc)"/>
    <ellipse cx="256" cy="200" rx="110" ry="52" fill="url(#broc)"/>
    <circle cx="232" cy="108" r="22" fill="#16a34a" opacity="0.5"/>
    <circle cx="278" cy="100" r="18" fill="#16a34a" opacity="0.5"/>
    <circle cx="162" cy="150" r="18" fill="#16a34a" opacity="0.45"/>
    <circle cx="322" cy="148" r="18" fill="#16a34a" opacity="0.45"/>
    <rect x="228" y="228" width="56" height="108" rx="12" fill="white"/>
    <rect x="142" y="348" width="228" height="26" rx="13" fill="white"/>
    <rect x="166" y="334" width="34" height="54" rx="9" fill="url(#acc)"/>
    <rect x="312" y="334" width="34" height="54" rx="9" fill="url(#acc)"/>
    <rect x="118" y="316" width="62" height="90" rx="16" fill="white"/>
    <rect x="134" y="334" width="26" height="54" rx="8" fill="url(#bg)"/>
    <rect x="332" y="316" width="62" height="90" rx="16" fill="white"/>
    <rect x="352" y="334" width="26" height="54" rx="8" fill="url(#bg)"/>
  </g>

  <!-- Wordmark -->
  <text x="228" y="148"
    font-family="'Inter','Helvetica Neue',Arial,sans-serif"
    font-size="108" font-weight="800" letter-spacing="-4"
    fill="white">Fit<tspan fill="#22c55e">Munch</tspan></text>

  <!-- Tagline -->
  <text x="230" y="182"
    font-family="'Inter','Helvetica Neue',Arial,sans-serif"
    font-size="20" font-weight="500" letter-spacing="2"
    fill="#86efac" opacity="0.8">TRACK · EAT · PERFORM</text>
</svg>
